<?xml version="1.0" standalone="no"?>
<!DOCTYPE svg PUBLIC "-//W3C//DTD SVG 20010904//EN"
 "http://www.w3.org/TR/2001/REC-SVG-20010904/DTD/svg10.dtd">
<svg version="1.0" xmlns="http://www.w3.org/2000/svg"
 width="512.000000pt" height="512.000000pt" viewBox="0 0 512.000000 512.000000"
 preserveAspectRatio="xMidYMid meet">
<metadata>
Created by potrace 1.14, written by Peter Selinger 2001-2017
</metadata>
<g transform="translate(0.000000,512.000000) scale(0.100000,-0.100000)"
fill="#000000" stroke="none">
<path d="M2419 5006 c-2 -2 -35 -7 -74 -10 -38 -4 -83 -9 -100 -11 -57 -9 -80
-13 -120 -20 -22 -4 -47 -9 -55 -10 -8 -2 -44 -11 -80 -20 -36 -9 -73 -19 -84
-21 -10 -2 -55 -15 -100 -30 -558 -180 -1026 -532 -1329 -997 -35 -55 -147
-255 -147 -264 0 -2 -12 -29 -26 -59 -14 -30 -27 -60 -28 -67 -1 -7 -4 -16 -8
-22 -17 -28 -79 -243 -97 -337 -33 -173 -36 -216 -36 -593 0 -317 5 -438 21
-518 2 -12 9 -50 14 -83 24 -150 113 -404 197 -564 108 -206 224 -363 392
-530 115 -114 120 -118 237 -208 123 -93 207 -145 377 -233 101 -52 334 -146
402 -163 6 -2 17 -6 25 -9 8 -4 35 -11 60 -17 25 -6 50 -12 55 -13 6 -1 16 -6
23 -10 6 -5 12 -6 12 -3 0 2 26 -2 58 -9 67 -16 102 -23 152 -31 19 -3 42 -7
51 -10 8 -2 40 -6 70 -9 29 -3 77 -8 104 -11 99 -12 435 -13 435 -2 0 6 6 6
15 -2 8 -7 15 -8 15 -3 0 5 15 8 33 8 17 -1 52 2 77 6 25 4 68 10 96 14 28 3
94 15 145 26 52 11 105 22 119 25 14 3 34 8 45 11 11 4 22 7 25 8 33 7 146 45
230 78 58 23 107 42 110 42 3 0 20 9 38 18 17 10 32 15 32 12 0 -3 6 -1 13 5
6 6 37 24 67 40 30 16 75 39 100 52 25 13 47 26 50 29 5 5 102 71 140 94 16
10 95 71 116 90 7 5 35 30 64 55 62 53 192 186 245 250 20 25 45 55 56 68 10
12 47 64 81 115 142 211 136 194 140 394 l3 171 -105 45 c-206 90 -816 358
-860 379 -25 11 -115 51 -200 88 -219 96 -679 299 -718 317 l-32 15 135 74
c74 41 140 74 145 74 6 0 10 5 10 11 0 5 5 7 10 4 6 -3 10 -2 10 2 0 5 33 26
73 46 79 42 79 42 155 86 28 17 52 27 52 23 0 -4 4 -2 8 3 8 12 48 35 112 67
25 13 47 26 48 31 2 4 8 7 13 7 5 0 44 20 87 43 84 48 157 88 272 150 41 22
80 43 85 47 6 4 48 28 95 53 47 25 117 62 155 84 39 21 86 46 105 56 41 21
107 57 167 93 24 14 43 22 43 18 0 -5 6 0 13 9 8 12 12 64 11 180 l-1 164 -40
59 c-289 426 -806 791 -1337 944 -115 33 -310 75 -401 86 -33 3 -69 9 -80 12
-24 6 -480 13 -486 8z"/>
</g>
</svg>
